<svg xmlns="http://www.w3.org/2000/svg" width="142.774" height="140.644" viewBox="0 0 142.774 140.644">
    <g id="Group_2937" data-name="Group 2937" transform="translate(-625.536 -45.693)">
        <path id="Path_2163" data-name="Path 2163" d="M641.088,179.46h33.625a1.447,1.447,0,0,1,1.443,1.442v36.769a1.447,1.447,0,0,1-1.443,1.442h-43a1.447,1.447,0,0,1-1.443-1.442V190.279A10.85,10.85,0,0,1,641.088,179.46Z" transform="translate(-3.019 -85.318)" fill="#8d0000" fill-rule="evenodd"/>
        <path id="Path_2164" data-name="Path 2164" d="M676.18,202.97v1.753H630.308a10.719,10.719,0,0,1,.235-1.753Z" transform="translate(-3.044 -100.312)" fill="#8d0000" fill-rule="evenodd"/>
        <path id="Path_2165" data-name="Path 2165" d="M803.036,127.5l3.756-6.2,2.13-1.421,3.662,4.676-.244.743A3.859,3.859,0,0,0,810.2,127a12.184,12.184,0,0,0-1.252,3.162Z" transform="translate(-113.21 -47.318)" fill="#f8b3a0" fill-rule="evenodd"/>
        <path id="Path_2166" data-name="Path 2166" d="M815.2,120.869l1.48-.988,3.662,4.676-.244.743a3.859,3.859,0,0,0-2.135,1.7c-.057.092-.112.187-.164.282a11.8,11.8,0,0,1-.995-1.137,6.747,6.747,0,0,1-1.326-5.032Z" transform="translate(-120.97 -47.318)" fill="#e2a28e" fill-rule="evenodd"/>
        <path id="Path_2167" data-name="Path 2167" d="M849.852,336.875s-2.2,6.915-2.191,7.388,4.132,1.628,4.132,1.628l2.129-.251a18.436,18.436,0,0,1,.313-5.509C854.861,336.625,854.235,335.561,849.852,336.875Z" transform="translate(-141.673 -185.371)" fill="#f8b3a0" fill-rule="evenodd"/>
        <path id="Path_2168" data-name="Path 2168" d="M779.386,260.033s-2.491,5.509.014,7.255,17.865,4.066,20.134,3.011,2.482-3.931,2.482-3.931S796.1,264.278,779.386,260.033Z" transform="translate(-97.423 -136.707)" fill="#4d2616" fill-rule="evenodd"/>
        <path id="Path_2169" data-name="Path 2169" d="M774.371,242.557s-.438,5.885,7.263,8.077,29.426,2.254,29.426,2.254c-3.16,4.127-6.029,10.17-7.892,14.711-3.006,7.326-3.256,8.578-3.256,8.578a9.9,9.9,0,0,0,4.226,1.722,11.536,11.536,0,0,0,4.383-.22c2.453-9.227,7-19.152,11.512-27.769l-.845-2.166c-6.4-2.173-29.006-9.819-32.548-10.57C782.508,236.3,774.371,242.557,774.371,242.557Z" transform="translate(-94.925 -122.074)" fill="#235176" fill-rule="evenodd"/>
        <g id="Group_2934" data-name="Group 2934" transform="translate(637.61 107.376)">
            <path id="Path_2170" data-name="Path 2170" d="M904.691,235.424l13.964,41.989,5.385-2.393-15.21-39.844Z" transform="translate(-815.657 -228.229)" fill="#8d0000" fill-rule="evenodd"/>
            <g id="Group_2932" data-name="Group 2932" transform="translate(98.013 46.663)">
                <path id="Path_2171" data-name="Path 2171" d="M964.338,370.2l-8.882.117,3.856,8.122-2.863,1.695L953.7,372.01l-5.259,6.954-2.8-1.87,6.427-6.369-8.59-3.214,1.4-2.746,7.421,3.331,1.11-7.655,3.506.468-1.928,7.421,8.414-.7Z" transform="translate(-938.408 -354.787)" fill="#696b6e" fill-rule="evenodd"/>
                <path id="Path_2172" data-name="Path 2172" d="M944.98,344.832a15.5,15.5,0,1,1-15.5,15.5,15.5,15.5,0,0,1,15.5-15.5Zm0,7.2a8.3,8.3,0,1,0,8.3,8.3A8.3,8.3,0,0,0,944.98,352.03Z" transform="translate(-929.481 -344.832)" fill="#544554" fill-rule="evenodd"/>
                <path id="Path_2173" data-name="Path 2173" d="M952.957,357.337a10.971,10.971,0,1,1-10.97,10.971,10.97,10.97,0,0,1,10.97-10.971Zm0,2.669a8.3,8.3,0,1,0,8.3,8.3A8.3,8.3,0,0,0,952.957,360.006Z" transform="translate(-937.457 -352.808)" fill="#909598" fill-rule="evenodd"/>
                <path id="Path_2174" data-name="Path 2174" d="M962.38,383.349a5.619,5.619,0,1,0-5.62-5.619A5.63,5.63,0,0,0,962.38,383.349Z" transform="translate(-946.88 -362.23)" fill="#909598" fill-rule="evenodd"/>
                <path id="Path_2175" data-name="Path 2175" d="M968.054,385.8a2.4,2.4,0,1,0-2.4-2.4A2.4,2.4,0,0,0,968.054,385.8Z" transform="translate(-952.554 -367.905)" fill="#696b6e" fill-rule="evenodd"/>
            </g>
            <g id="Group_2933" data-name="Group 2933" transform="translate(7.171 47.361)">
                <path id="Path_2176" data-name="Path 2176" d="M713.53,372.127l-8.882.117,3.856,8.122-2.863,1.695-2.746-8.123-5.259,6.954-2.805-1.87,6.428-6.369-8.59-3.214,1.4-2.746,7.421,3.331,1.11-7.654,3.506.467-1.928,7.421,8.414-.7Z" transform="translate(-687.6 -356.715)" fill="#696b6e" fill-rule="evenodd"/>
                <path id="Path_2177" data-name="Path 2177" d="M694.173,346.759a15.5,15.5,0,1,1-15.5,15.5,15.5,15.5,0,0,1,15.5-15.5Zm0,7.2a8.3,8.3,0,1,0,8.3,8.3A8.3,8.3,0,0,0,694.172,353.957Z" transform="translate(-678.673 -346.759)" fill="#544554" fill-rule="evenodd"/>
                <path id="Path_2178" data-name="Path 2178" d="M702.15,359.265a10.97,10.97,0,1,1-10.971,10.971,10.97,10.97,0,0,1,10.971-10.971Zm0,2.668a8.3,8.3,0,1,0,8.3,8.3A8.3,8.3,0,0,0,702.149,361.933Z" transform="translate(-686.649 -354.735)" fill="#909598" fill-rule="evenodd"/>
                <path id="Path_2179" data-name="Path 2179" d="M711.573,385.276a5.619,5.619,0,1,0-5.62-5.619A5.63,5.63,0,0,0,711.573,385.276Z" transform="translate(-696.072 -364.158)" fill="#909598" fill-rule="evenodd"/>
                <path id="Path_2180" data-name="Path 2180" d="M717.246,387.728a2.4,2.4,0,1,0-2.4-2.4A2.4,2.4,0,0,0,717.246,387.728Z" transform="translate(-701.746 -369.832)" fill="#696b6e" fill-rule="evenodd"/>
            </g>
            <path id="Path_2181" data-name="Path 2181" d="M669.639,315.862a7.246,7.246,0,0,0-3.939.6c-1.546.848-2.543,8.827-2.045,9.973s2.2.646,2.2.646Z" transform="translate(-661.841 -279.656)" fill="#8d0000" fill-rule="evenodd"/>
            <path id="Path_2182" data-name="Path 2182" d="M681.331,310.315s-10.173.149-11.22,1.5-3.95,12.575-3.441,12.817a12.263,12.263,0,0,0,2.493.349Z" transform="translate(-663.808 -276.154)" fill="#979799" fill-rule="evenodd"/>
            <path id="Path_2183" data-name="Path 2183" d="M845.651,265.839c-3.391-10.871-6.782-19.6-6.583-21.743s7.731-3.435,7.731-3.435l1.843,8.422,2.294,10.323-.8,11.469a30.025,30.025,0,0,1-.335,3.922h0a1.616,1.616,0,0,1-.138.832c-.553,3.059-1.756,6.686-4.366,7.934-.572,1.019-.922,1.746-.8,1.88.455.5-7.381,2.693-7.381,2.693l-19.748,2.593s-9.083-1-10.073-1-2.992-8.278-2.992-8.278l3.222-.168a20.582,20.582,0,0,0,10.74,2.462c6.483-.2,17.722.563,20.6-1.2C844.159,279.31,847.3,271.13,845.651,265.839Z" transform="translate(-751.63 -231.728)" fill="#8d0000" fill-rule="evenodd"/>
            <path id="Path_2184" data-name="Path 2184" d="M754.042,240.661S767.053,265.7,766.416,269.4s-15.18,18.371-19.9,21.049c-2.259,1.282-22.428,1.454-42.848,1.285h-.031c-22.238-.185-44.763-.774-44.763-.774s2.933-22.581,25-29.98,39.165-2.807,39.165-2.807,1.276,4.465-2.807,6.506c-10.42,5.21-9.169,17.591,1.044,22.021,10.284.045,21.506,0,23.781-.357,7.4-1.177,11.75-21.506,9.812-27.235C751.527,249.221,746.387,249.219,754.042,240.661Z" transform="translate(-658.873 -231.728)" fill="#8d0000" fill-rule="evenodd"/>
            <path id="Path_2185" data-name="Path 2185" d="M863.624,240.661s.191.368.523,1.016l-.768.97v.045h0c-1.325,1.59-2.778,3.682-2.566,5.482a12.048,12.048,0,0,0,1.647,3.836,40.143,40.143,0,0,1,3.082,6.73c1.3,3.83-.048,11.133-1.089,14.955-1.221,4.483-4.276,12.931-9.631,13.783a26.014,26.014,0,0,1-2.94.212c-1.63.064-3.264.095-4.895.118-4.395.063-8.793.064-13.188.052h-.532c-.141-.017-.275-.032-.4-.045-1.739-.172-2.112-.987-2.18-1.193.059.026.116.054.176.08,10.284.045,21.506,0,23.781-.357,7.4-1.177,11.75-21.506,9.812-27.235C861.109,249.221,855.969,249.219,863.624,240.661Z" transform="translate(-768.455 -231.728)" fill="#fff" fill-rule="evenodd"/>
            <path id="Path_2186" data-name="Path 2186" d="M719.161,329.756c-2.124-.01-4.272-.024-6.422-.041h-.031c-15.775-.131-31.691-.465-39.611-.648,11.563-37.557,43.06-33.1,49.009-16.721a11.049,11.049,0,0,0,.974,5.505A21.344,21.344,0,0,1,719.161,329.756Z" transform="translate(-667.945 -269.711)" fill="#8d0000" fill-rule="evenodd"/>
            <path id="Path_2187" data-name="Path 2187" d="M715.565,334.417c-16.36-.136-37.167-.49-44.765-.669,1.546-5.306,5.819-16.693,17.974-22.622C713.815,298.911,724.376,321.187,715.565,334.417Z" transform="translate(-666.48 -274.414)" fill="#8d0000" fill-rule="evenodd"/>
            <path id="Path_2188" data-name="Path 2188" d="M738.115,329.16a16.732,16.732,0,0,0-2.194-11.712,14.032,14.032,0,0,0-9.354-6.361c-5.531-1.1-11.458.681-16.4,3.094a30.544,30.544,0,0,0-6.615,4.361,35.6,35.6,0,0,1,3.313-1.669c5.48-2.412,12.048-4.191,18.177-3.093a15.677,15.677,0,0,1,10.366,6.361A15.2,15.2,0,0,1,738.115,329.16Z" transform="translate(-687.368 -276.435)" fill="#8d0000" fill-rule="evenodd"/>
            <path id="Path_2189" data-name="Path 2189" d="M682.1,361.274h33.716c.493,0,.9.235.9.523h0c0,.288-.4.524-.9.524H682.1c-.493,0-.9-.235-.9-.524h0c0-.288.4-.523.9-.523Zm4.183-3.615H720c.494,0,.9.235.9.523h0c0,.288-.4.524-.9.524H686.285c-.494,0-.9-.236-.9-.524h0c0-.288.4-.523.9-.523Zm-2.049,1.807h33.716c.493,0,.9.235.9.523h0c0,.288-.4.524-.9.524H684.236c-.493,0-.9-.235-.9-.524h0C683.34,359.7,683.743,359.466,684.236,359.466Z" transform="translate(-673.117 -306.35)" fill="#544554" fill-rule="evenodd"/>
            <path id="Path_2190" data-name="Path 2190" d="M969.348,382.7a1.5,1.5,0,1,1-1.5,1.5,1.5,1.5,0,0,1,1.5-1.5Zm0,.766a.732.732,0,1,0,.732.732A.732.732,0,0,0,969.348,383.47Z" transform="translate(-855.94 -322.324)" fill="#909598" fill-rule="evenodd"/>
            <path id="Path_2191" data-name="Path 2191" d="M945.818,353.954l6.571,10.52s2.2.693,3-.621a3.381,3.381,0,0,0,.632-2.218l-6.043-10Z" transform="translate(-841.888 -302.508)" fill="#8d0000" fill-rule="evenodd"/>
            <path id="Path_2192" data-name="Path 2192" d="M913.633,348.329c.128-.447,4.593-13.331,13.65-17.669,7.583-3.631,20.929-1.346,23.792,7.718a7.611,7.611,0,0,1-4.529,2.3c-3,.447-8.675-2.743-14.734,2.807S918.481,352.347,913.633,348.329Z" transform="translate(-821.36 -288.079)" fill="#8d0000" fill-rule="evenodd"/>
            <path id="Path_2193" data-name="Path 2193" d="M963.216,341.052a6.3,6.3,0,0,0,1.6-.948c-3.058-7.777-15.152-9.648-21.972-6.382a15.451,15.451,0,0,0-1.754.988,17.987,17.987,0,0,0-1.56,1.14A22.5,22.5,0,0,0,937.248,338q.427-.388.872-.751a18.194,18.194,0,0,1,1.561-1.14,15.485,15.485,0,0,1,1.754-.988C948.121,331.915,959.876,333.652,963.216,341.052Z" transform="translate(-836.422 -290.105)" fill="#8d0000" fill-rule="evenodd"/>
            <path id="Path_2194" data-name="Path 2194" d="M922.219,266.445s-2.85-.908-2.653-.121,2.822,5.643,3.216,6.5,3.375,1.171,3.375,1.171S924.09,268.25,922.219,266.445Z" transform="translate(-825.138 -247.891)" fill="#ffc320" fill-rule="evenodd"/>
            <path id="Path_2195" data-name="Path 2195" d="M893.285,222.686a14.094,14.094,0,0,1,7.886-5.779c5.3-1.427,6.731-.748,6.731-.748l.884,8.09s-8.5,1.156-10.878,1.632S893.285,222.686,893.285,222.686Z" transform="translate(-808.382 -215.997)" fill="#8d0000" fill-rule="evenodd"/>
            <path id="Path_2196" data-name="Path 2196" d="M927.4,216.042a5.056,5.056,0,0,1,2.263.117l.883,8.09s-.978.133-2.362.327Z" transform="translate(-830.138 -215.998)" fill="#979799" fill-rule="evenodd"/>
        </g>
        <path id="Path_2197" data-name="Path 2197" d="M778.724,135.824s-7.137-1-12.772,17.531-1.252,28.8-1.252,28.8,2.379-.062,11.019-3.693,9.2-4.883,9.2-4.883-4.633-10.894-3.193-19.534a118.842,118.842,0,0,1,2.943-13.586S781.478,136.138,778.724,135.824Z" transform="translate(-87.724 -57.48)" fill="#8d0000" fill-rule="evenodd"/>
        <path id="Path_2198" data-name="Path 2198" d="M803.933,188.071c1.311,4.592,2.54,11.374,2.54,11.374,7.086,2.574,17.218,3.845,24.981,5.447,0,0,2.691,2.693,4.57,2.693s4.821-1.565,4.664-2.222-1.439-4.351-2.1-5.071-1.941-.376-2.536-.125-3.1,1.221-3.1,1.221c-6.836-1.882-14.192-5.263-21.13-7.388a48.947,48.947,0,0,0-1.073-7.52C807.765,187.637,806.933,186.9,803.933,188.071Z" transform="translate(-113.783 -89.794)" fill="#f8b3a0" fill-rule="evenodd"/>
        <path id="Path_2199" data-name="Path 2199" d="M797.838,164.073a27.425,27.425,0,0,0,.751,3.365c1.711-.668,5.5-2.132,8.592-3.21.15-.053.294-.106.436-.16-.391-1.608-.766-3.342-1.024-4.971-.813-5.134.288-8.022-2.783-9.2C794.986,146.5,797.344,160.822,797.838,164.073Z" transform="translate(-109.478 -66.13)" fill="#8d0000" fill-rule="evenodd"/>
        <path id="Path_2200" data-name="Path 2200" d="M843.306,354.088c-.707,2.166-2.034,6.116-2.034,6.116s3.967.283,10.581.427,8.7-.694,8.7-.694a10.557,10.557,0,0,0-1.625-2.124c-.564-.376-4.7-1.189-7.2-2.5a5.736,5.736,0,0,1-1.051-.694,8.624,8.624,0,0,1-3.209.909A16.636,16.636,0,0,1,843.306,354.088Z" transform="translate(-137.598 -196.696)" fill="#4d2616" fill-rule="evenodd"/>
        <path id="Path_2201" data-name="Path 2201" d="M841.657,367.8l-.385,1.148s3.967.283,10.581.427,8.7-.694,8.7-.694-.245-.4-.563-.866a35.993,35.993,0,0,1-7.079.645A94.22,94.22,0,0,1,841.657,367.8Z" transform="translate(-137.598 -205.444)" fill="#92755a" fill-rule="evenodd"/>
        <path id="Path_2202" data-name="Path 2202" d="M805.12,132.015l-1.241,1.415,6.474,5.908,1.286-2.751Z" transform="translate(-113.748 -55.057)" fill="#8d0000" fill-rule="evenodd"/>
        <path id="Path_2203" data-name="Path 2203" d="M793.325,82.1l-.774,3.406a30.705,30.705,0,0,0,2.1,8.441,12.172,12.172,0,0,0,4.2,4.971s3.1-2.582,3.874-4.391,4.132-5.488,4.132-5.488l1.985-5.1S795.875,79.932,793.325,82.1Z" transform="translate(-106.523 -22.809)" fill="#4d2616" fill-rule="evenodd"/>
        <path id="Path_2204" data-name="Path 2204" d="M827.72,84.6a58.219,58.219,0,0,1-.322,6.585c-.323,1.678,2.179,3.761,2.356,4.132s-1.033.711-1.21,1.1a5.425,5.425,0,0,0-.162,1.5,9.294,9.294,0,0,1-2.437.194,4.226,4.226,0,0,1-1.372-.226,4.327,4.327,0,0,0,1.138,2.042A4.066,4.066,0,0,0,827.487,101s-.436,1.969-.5,2.5-.435,1.227-1.791,1.452-3.228.065-7.037-2.066-3.939-3.455-4.552-4.617a5.576,5.576,0,0,1-.646-2.195,2.128,2.128,0,0,1-1.711-1.937,5.071,5.071,0,0,1,1.582-4.552,1.3,1.3,0,0,1,2.13.678,3.179,3.179,0,0,1,.194,1.42l1.194-.032a8.783,8.783,0,0,1,1.291-2.518,12.688,12.688,0,0,0,1.453-4.874C819,84.08,826.907,83.224,827.72,84.6Z" transform="translate(-118.413 -24.325)" fill="#f8b3a0" fill-rule="evenodd"/>
        <path id="Path_2205" data-name="Path 2205" d="M850.193,105.931c.382,0,.694-.537.694-1.195s-.312-1.195-.694-1.195-.694.537-.694,1.195S849.811,105.931,850.193,105.931Z" transform="translate(-142.845 -36.897)" fill="#241104" fill-rule="evenodd"/>
        <path id="Path_2206" data-name="Path 2206" d="M843.927,98.388a4.6,4.6,0,0,1,2.389-.791,7.538,7.538,0,0,1,1.711.21c-.032-.1.1-.937-.371-1.049S844.573,96.758,843.927,98.388Z" transform="translate(-139.291 -32.55)" fill="#4d2616" fill-rule="evenodd"/>
        <path id="Path_2207" data-name="Path 2207" d="M825.54,80.187s8.006,1.873,13.235,1.614,9.1-4.648,9.1-4.648-12.654-1.614-13.171-1.549S825.54,80.187,825.54,80.187Z" transform="translate(-127.564 -19.076)" fill="#8d0000" fill-rule="evenodd"/>
        <path id="Path_2208" data-name="Path 2208" d="M791.494,64.687s8.991.85,15.07-.984a73.281,73.281,0,0,1,8.65-4.941c-.317-.924-2.5-7.188-3.511-8.085-1.1-.968-11.685-1.808-11.685-1.808s-6.521,3.744-7.49,5.488S791.494,64.687,791.494,64.687Z" transform="translate(-105.849 -2.026)" fill="#8d0000" fill-rule="evenodd"/>
        <path id="Path_2209" data-name="Path 2209" d="M813.04,47.968c.667-.128,1.263.057,1.331.414s-.417.749-1.084.877-1.263-.058-1.331-.414S812.373,48.1,813.04,47.968Z" transform="translate(-118.896 -1.425)" fill="#8d0000" fill-rule="evenodd"/>
        <g id="Group_2935" data-name="Group 2935" transform="translate(719.717 114.166)">
            <path id="Path_2210" data-name="Path 2210" d="M886.859,235.934l.142-.742a10.5,10.5,0,0,1,1.81-.446c.608-.043,1.145,1.2.919,1.768s-1.495,1.406-1.495,1.406Z" transform="translate(-886.39 -234.745)" fill="#696b6e" fill-rule="evenodd"/>
            <path id="Path_2211" data-name="Path 2211" d="M886.175,235.915c.541-.18,1.2.321,1.461,1.12s.042,1.592-.5,1.772-1.195-.321-1.461-1.12S885.634,236.095,886.175,235.915Z" transform="translate(-885.565 -235.468)" fill="#909598" fill-rule="evenodd"/>
        </g>
        <path id="Path_2212" data-name="Path 2212" d="M686.257,288.824l9.659,5.577c1.151.665.47,2.446-.941,1.631l-9.659-5.577C683.4,289.351,684.89,288.034,686.257,288.824Z" transform="translate(-37.547 -154.917)" fill="#8d0000" fill-rule="evenodd"/>
        <path id="Path_2213" data-name="Path 2213" d="M686.257,288.824l4.574,2.64-3.678.051-1.837-1.061C683.4,289.351,684.89,288.034,686.257,288.824Z" transform="translate(-37.547 -154.917)" fill="#6d262c" fill-rule="evenodd"/>
        <path id="Rectangle_1949" data-name="Rectangle 1949" d="M.941,0H30.965a.942.942,0,0,1,.942.942v0a.941.941,0,0,1-.941.941H.941A.941.941,0,0,1,0,.942v0A.941.941,0,0,1,.941,0Z" transform="translate(643.54 133.337)" fill="#8d0000"/>
        <path id="Path_2214" data-name="Path 2214" d="M714.241,306.723a.434.434,0,1,0-.435-.434A.435.435,0,0,0,714.241,306.723Z" transform="translate(-56.299 -165.932)" fill="#909598" fill-rule="evenodd"/>
        <path id="Path_2215" data-name="Path 2215" d="M759.326,289.843a.434.434,0,1,0-.434-.434A.435.435,0,0,0,759.326,289.843Z" transform="translate(-85.055 -155.166)" fill="#909598" fill-rule="evenodd"/>
        <path id="Path_2216" data-name="Path 2216" d="M911.672,175.628l2.6,1.159.845,18.016s.008.188.3.188.376-.172.376-.172l-.993-18.485-2.818-1.2Z" transform="translate(-182.499 -82.56)" fill="#909598" fill-rule="evenodd"/>
        <path id="Path_2217" data-name="Path 2217" d="M903.62,169.073l-.72,1.81,1.158.225a9.05,9.05,0,0,0,2.521-3.835,9.313,9.313,0,0,0,.547-4.68l-.824-.679-1.07,3.011Z" transform="translate(-176.904 -74.127)" fill="#696b6e" fill-rule="evenodd"/>
        <path id="Path_2218" data-name="Path 2218" d="M904.94,161.489c.759.283.617,2.544-.317,5.05s-2.307,4.309-3.066,4.025-.617-2.544.317-5.05S904.181,161.206,904.94,161.489Z" transform="translate(-175.736 -73.837)" fill="#c5c8c9" fill-rule="evenodd"/>
        <path id="Path_2219" data-name="Path 2219" d="M685.051,324.065s-3.352,5.26-3.955,5.589a11.687,11.687,0,0,1-2.083.669,20.633,20.633,0,0,1,2.289-3.92c1.392-1.813,1.837-2.115,2.405-2.289A3.569,3.569,0,0,1,685.051,324.065Z" transform="translate(-34.107 -177.52)" fill="#ffc320" fill-rule="evenodd"/>
        <g id="Group_2936" data-name="Group 2936" transform="translate(625.536 45.693)">
            <path id="Path_2220" data-name="Path 2220" d="M813.862,105.037c-.419.256-1.2,1.75-.346,1.894a.207.207,0,0,0,.214-.133c.036-.13-.059-.227-.071-.355a1.53,1.53,0,0,1,.244-.81.5.5,0,0,1,.8-.15,1.574,1.574,0,0,1,.4,1.008c.014.088.163.09.162,0a1.768,1.768,0,0,0-.379-1.317A.819.819,0,0,0,813.862,105.037Z" transform="translate(-745.187 -83.464)" fill="#1a1a1a" fill-rule="evenodd"/>
            <path id="Path_2221" data-name="Path 2221" d="M834.29,58.322a10.768,10.768,0,0,0,1.435-1.869q.259-.432.474-.886a3.776,3.776,0,0,0,.25-.568c.049-.172.027-.445.1-.164a.054.054,0,0,0,.107-.017,1.646,1.646,0,0,0-.029-.321.073.073,0,0,0-.14-.014,10.721,10.721,0,0,1-2.207,3.831C834.275,58.318,834.285,58.327,834.29,58.322Z" transform="translate(-758.673 -51.269)" fill="#1a1a1a" fill-rule="evenodd"/>
            <path id="Path_2222" data-name="Path 2222" d="M714.683,387.935a2.3,2.3,0,0,0,3.352-2.6c-.01-.028-.026-.059-.039-.089a3.065,3.065,0,0,0-2.933-2.527,1.954,1.954,0,0,0-1.892,1.645,1.7,1.7,0,0,0-.471,1.542A2.745,2.745,0,0,0,714.683,387.935Zm.538-4.677a8,8,0,0,0-.933.354A1.28,1.28,0,0,1,715.222,383.257Zm-1.22.737a6.811,6.811,0,0,1,1.393-.622.068.068,0,0,0,.041-.1,2.217,2.217,0,0,1,.394.088,2.071,2.071,0,0,1,.593.318.966.966,0,0,0-1.335.45.825.825,0,0,0-.047.115c-.01.005-.021.007-.031.012a.108.108,0,0,0-.02.18c-.165,1.026,1.01,2.7,1.883,1.724.6-.673.091-1.492-.625-1.848l.064-.1.421.247a1.88,1.88,0,0,1,.581,2.4,2.1,2.1,0,0,1-1.527.788C713.957,387.68,713.322,385.255,714,383.994Zm1.971.727c.279.126.5.3.508.537l-.456.5-.4-.523Zm-2.861.356a3.8,3.8,0,0,0,.522,1.793A1.758,1.758,0,0,1,713.112,385.077Z" transform="translate(-681.11 -260.647)" fill="#1a1a1a" fill-rule="evenodd"/>
            <path id="Path_2223" data-name="Path 2223" d="M757.043,148.71a21.166,21.166,0,0,0-12.736.722q-.237-.679-.478-1.357a9.327,9.327,0,0,0,.827-1.857.435.435,0,0,0,.319-.168c1.3-1.679-.066-4.382-.7-6.109q-1.56-4.244-3.336-8.4t-3.772-8.218a42.156,42.156,0,0,0-3.748-6.914q2.131-.332,4.291-.468a.327.327,0,0,0,.286-.176.334.334,0,0,0,.273-.318c.242-2.524-.33-5.313-.5-7.844a.433.433,0,0,0-.484-.351c-1.376.047-2.875-.026-4.292.132q-.111-3.16-.176-6.322c-.039-1.958-.059-3.916-.077-5.874-.015-1.574-1.167-1.871-2.424-2.725-.016-.011-.031-.016-.046-.025.5-1.742.928-4.311-.673-4.788-1.481-1.412-3.216,1.962-3.693,2.964-.66,1.389-2.641,5.759-.484,6.837,2.088,1.044,3.94-2.386,4.467-3.836l0-.013a3.74,3.74,0,0,1,1.617,1.46,9.74,9.74,0,0,1,.022,2.764q.029,2.591.089,5.182.053,2.3.131,4.595c-.084.02-.17.035-.252.058a.174.174,0,0,0-.063.035,8.4,8.4,0,0,0-2.794.768,12.666,12.666,0,0,0-3.422,2.027,1.894,1.894,0,0,0-.612-.592c-.7-.381-1.528.008-2.231.227a21.488,21.488,0,0,0-3.056,1.175.364.364,0,0,0-.242-.3c-2.211-.8-4.546-1.281-6.778-2.04q-3.2-1.088-6.3-2.452a44.683,44.683,0,0,0-5.889-2.368,3.461,3.461,0,0,1-1.217-.476c-.682-.465-.595-.817-.706-1.591-.161-1.13-.311-2.266-.52-3.389.161-.067.324-.13.485-.2a.469.469,0,0,0,.264-.49l-1.108-9.537a13.487,13.487,0,0,0-.552-3.316c.067-.085.135-.18.209-.29.479-.711,1.669-2.417,1.579-3.326-.064-.642-.741-1.109-1.4-1.478a6.961,6.961,0,0,1,.7-1.068c.2-.241.434-.457.645-.69a15.231,15.231,0,0,0,5.858,2.57,7.275,7.275,0,0,0,3.6.083c.907-.343,1.085-1.2,1.31-2.057.2-.75.642-1.722.157-2.42-.271-.389-.832-.624-1.185-.929a6.223,6.223,0,0,1-1.28-1.552,6.976,6.976,0,0,0,3.024.042.352.352,0,0,0,.29-.307c.033-1.43.732-1.519,1.594-2.5a.341.341,0,0,0-.082-.473c-2.657-1.619-2.489-4.765-2.136-7.484a16.329,16.329,0,0,0,11.05-4.835.472.472,0,0,0-.251-.82c-3.59-.214-7.03-.964-10.566-1.459a16.822,16.822,0,0,0-1.817-4.736c-.513-1.05-1.011-2.6-2.049-3.25-1.272-.792-3.3-.735-4.759-.98a28.826,28.826,0,0,0-5.349-.8,1.344,1.344,0,0,0-1.65-.613,1.878,1.878,0,0,0-.361.173,2.636,2.636,0,0,0-1.36.45.878.878,0,0,0-.38,1.03,9.553,9.553,0,0,0-5.792,4.271c-1.553,3.19-1.773,7.378-1.758,10.853a.561.561,0,0,0,.49.6c.216.016.432.029.649.043-.334,2.549.885,5.568,1.859,7.8.834,1.908,2.212,4.413,4.251,5.333-.1.126-.192.255-.285.385a.921.921,0,0,1-.151-.188.152.152,0,0,0-.2-.074l-.12.057a.3.3,0,0,0-.17.3l-.472.646a5.422,5.422,0,0,0-.342.5c-1.329.1-2.617,1.249-3.561,2.048a21.639,21.639,0,0,0-3.831,4.336A39.2,39.2,0,0,0,677.744,95.5c-2.724,9.3-3.932,19.331-1.327,28.8a.456.456,0,0,0,.562.314,4.368,4.368,0,0,0,2.158.1l0,.005a10.209,10.209,0,0,0,1.1,1.258,3.526,3.526,0,0,0,1.01,5.019,8.508,8.508,0,0,0,3.2.932l.631.1a34.552,34.552,0,0,0-9.953,1.343,1.731,1.731,0,0,0-1.378-.668c-.164,0-.328-.005-.492-.009.94-1.245,1.086-3.4,1.006-4.857-.258-4.658-.411-9.292-.361-13.959.048-4.511.182-9.022.105-13.533-.053-3.134.221-6.764-3.63-7.427a38.6,38.6,0,0,0-5.58-.253q-3.8-.089-7.593-.081-6.68.014-13.357.321c-3.926.18-8.646-.134-12.1,2.07-2.892,1.845-4.369,5.127-5.033,8.38-1.021,5-1.057,10.352-1.147,15.443-.091,5.129.068,10.259.444,15.374a.784.784,0,0,0,.84.77c1.253.939,4.8.076,5.832,0,3.4-.239,6.8-.265,10.206-.286.59,1.105,2.313,1.128,3.649,1.106.195.685.972.919,1.592,1.282q1.562.915,3.187,1.716c.737.364,1.526.771,2.343,1.147a11.057,11.057,0,0,0-2.1,1.406c-1.748-.552-4.314-.1-6.013,0a2.094,2.094,0,0,0-2.227,1.693,2.408,2.408,0,0,0-2.451.235c-1.25,1.085-1.6,3.825-1.89,5.375-.309,1.647-.909,4.162-.4,5.817a1.246,1.246,0,0,0,1.292,1.008,6.735,6.735,0,0,0,.02,2.166c-.118.255-.236.51-.352.766a49.943,49.943,0,0,0-2.8,7.124,1.121,1.121,0,0,0-.227.906c-.025.106-.054.211-.077.317-.048.226.272.347.415.2a.871.871,0,0,0,.474.135q3.585.031,7.17.068-.078.144-.145.3a.323.323,0,0,0-.19.494,11.132,11.132,0,0,0-.355,3.773,13.9,13.9,0,0,0,1.578,5.776,16.5,16.5,0,0,0,9.05,7.806,16.767,16.767,0,0,0,20.8-7.8c.6-1.163,2.8-7.851,1.609-9.969a.243.243,0,0,0,.042-.108q4.657.015,9.313.007c.765,0,1.529,0,2.294,0a1.1,1.1,0,0,0,1.284,0c6.8.013,13.6.095,20.4.088,3.74,0,7.5-.022,11.231-.256a12.969,12.969,0,0,0,8.481-4c.565-.532,1.119-1.078,1.674-1.623a23.126,23.126,0,0,0-1.514,4.02c-.289,1.026-1.032,2.66-.386,3.671.658,1.03,2.4,1.114,3.474,1.164.287.013.574.015.862.012q.19.721.407,1.432a.276.276,0,0,0,.1.325q.207.655.438,1.3a13.976,13.976,0,0,0,3.54,6.92A16.99,16.99,0,0,0,749,185.714a16.633,16.633,0,0,0,17.675-12.943,16.8,16.8,0,0,0,.037-7.456,14.934,14.934,0,0,0-1.93-4.8,7.187,7.187,0,0,0,2.085-1.116C772.47,155.049,760.179,149.517,757.043,148.71ZM725.518,93.884a15.363,15.363,0,0,1,.582-1.937c.4-1.061,1.31-3.633,2.793-3.869a9.115,9.115,0,0,1-3.031,7.888C725.064,95.213,725.263,94.978,725.518,93.884Zm.643,2.485c-.038-.05-.075-.109-.112-.17.288-.272,1.062-1.12,1.1-1.173,1.331-1.835,2.739-4.71,1.887-6.962a1.333,1.333,0,0,1,.3.1c.864,2.009-.386,4.381-1.395,6.124C727.922,94.324,726.692,96.168,726.161,96.369Zm3.516-3.921a.609.609,0,0,0-.242.745c-.03.083-.057.156-.08.218a6.3,6.3,0,0,1-1.95,2.835c-.31.4-.6.536-.873.432a8.442,8.442,0,0,0,1.751-2.522c.964-1.746,2.059-3.961,1.2-5.909C730.5,88.94,730.081,91.083,729.677,92.448Zm2.192,23.4c-.652.126-1.49.42-2.363.687a.474.474,0,0,0-.234-.028,10.444,10.444,0,0,0-2.437.549,2.88,2.88,0,0,1-.8-.1,3.628,3.628,0,0,0,.562-.4,14.548,14.548,0,0,0,4.967-.946,12.4,12.4,0,0,1,3.733-.5h.106c.012.073.025.146.038.219C734.245,115.452,733.053,115.621,731.869,115.85Zm-38.1,3.622a20.542,20.542,0,0,0,2.618-1.725l.519.159a21.11,21.11,0,0,1-7.657,7.562c-.766.437-1.568.774-2.363,1.149l-.039.018a4.542,4.542,0,0,0,.453-.254A17.182,17.182,0,0,0,690.706,123c.573-.709,1.122-1.436,1.684-2.154A19,19,0,0,0,693.767,119.472Zm23.439-4.2a.375.375,0,0,0,.1-.008,2.681,2.681,0,0,0,2.222,1.337,2.128,2.128,0,0,0,1.788,1.093c1.012,1.124,2.968.095,4.076-.41l.144-.068a.193.193,0,0,0,.021.021,2.549,2.549,0,0,0,.422.224,4.259,4.259,0,0,0-1.215,1.035c-1.222,1.542-.868,3.444-.3,5.176,1.722,5.256,3.724,10.431,5.577,15.642,1.04,2.927,1.885,5.848.983,8.936a19.454,19.454,0,0,1-3.481,6.639,10.014,10.014,0,0,1-6.5,3.509c-1.958.3-3.955.086-5.917.237l-.186-.064c.006-.009.014-.016.02-.024a.194.194,0,0,0-.009-.23l-.095-.119a.186.186,0,0,0-.314.053l-.024.082a.085.085,0,0,0,.028.091,3.1,3.1,0,0,1-1.568-1.035.22.22,0,0,0-.024-.031c.559-.062,1.116-.153,1.663-.261a.211.211,0,0,0-.066-.416c-.549.075-1.1.155-1.649.219,0-.127,0-.253-.005-.378.22.034.438.073.658.105a.845.845,0,0,0,.919-.748c.32-5.277,2.882-9.937,5.059-14.639,1.2-2.6,2.383-5.21,3.459-7.866q.745-1.838,1.439-3.7a6.517,6.517,0,0,0,.714-2.706c-.18-1.95-2.625-2.475-4.122-3.033-2.615-.974-5.258-1.874-7.907-2.753-5.093-1.69-10.215-3.263-15.41-4.6.195-.191.385-.386.568-.59a.706.706,0,0,0-.034-.854,35.353,35.353,0,0,1-2.34-3.844c2.834.688,5.791,1.108,8.585,1.661C708.689,113.794,712.949,114.8,717.206,115.271Zm-1.319-1.013a5.544,5.544,0,0,1,1.176-2.2,6.8,6.8,0,0,0-.285,1.717q-.11.312-.2.634C716.349,114.361,716.118,114.307,715.887,114.258Zm6.05,1.456a1.353,1.353,0,0,0-.815-.887.078.078,0,0,0-.018-.052,1.332,1.332,0,0,0-.111-.1,2.311,2.311,0,0,1,.707-.083c.979.046,1.021,1.283.579,1.9a1.286,1.286,0,0,1-.458.4.457.457,0,0,0-.3.034A1.188,1.188,0,0,0,721.937,115.713Zm-.867-.8a1.351,1.351,0,0,1,.62.643.961.961,0,0,1-.528,1.3,1.314,1.314,0,0,0-.131-.685c-.052-.114-.211-.035-.173.079a1.589,1.589,0,0,1,.068.738.094.094,0,0,0,0,.021,1.532,1.532,0,0,1-.577-.24,1.388,1.388,0,0,1-.622-1.031,1.087,1.087,0,0,1,.135-.594,7.81,7.81,0,0,1,.847-.382c.03.01.06.019.089.03a.913.913,0,0,1,.175.121A.075.075,0,0,0,721.07,114.917Zm6.793,9.964c.312,1.86,1.546,3.41,2.465,5a20.3,20.3,0,0,1,2.647,6.759,21.434,21.434,0,0,1-.246,7.4,20.222,20.222,0,0,0-.9-3.8c-.865-2.657-1.861-5.278-2.807-7.906q-1.445-4.014-2.893-8.027c-.538-1.5-1.387-3.389-.5-4.918.733-1.259,2.495-1.685,3.785-2a.454.454,0,0,0,.307-.23c.241-.069.479-.134.711-.187q.863-.2,1.732-.359C729.871,118.748,727.305,121.556,727.863,124.881Zm-18.287,27.407a24.273,24.273,0,0,0,2.652.827l-.068,0a28.848,28.848,0,0,1-2.94.038,15.173,15.173,0,0,1-3.632-.609q.318-.83.651-1.651A27.305,27.305,0,0,0,709.575,152.287Zm-3.185-1.745a52.766,52.766,0,0,1,7.125.617.127.127,0,0,0,.029,0q-.221.817-.382,1.648A34.816,34.816,0,0,1,706.391,150.542Zm6.67,2.815c-.082.492-.148.988-.193,1.49-2.571-.339-5.129-.753-7.669-1.279.109-.295.222-.587.334-.88A19.707,19.707,0,0,0,713.061,153.357Zm-.9,3.049a2.273,2.273,0,0,0-.123.579,6.666,6.666,0,0,1-4.433-.965q.045-.224.081-.453Q709.912,156.038,712.16,156.406Zm-4.6-.179a6.781,6.781,0,0,0,4.46,1.2c0,.03,0,.061,0,.091a5.334,5.334,0,0,1-4.518-.095c.016-.011.031-.02.049-.032a.158.158,0,0,0-.045-.266,1.488,1.488,0,0,1-.15-.071C707.431,156.781,707.5,156.505,707.561,156.227Zm5.224,2.208a.6.6,0,0,0,.147-.105,4.333,4.333,0,0,0,.469.376,9.738,9.738,0,0,1-1.12.384,11.63,11.63,0,0,1-2.29.161,12.8,12.8,0,0,1-1.744-.176,12,12,0,0,1-1.675-.4.677.677,0,0,1-.528-.166,2.243,2.243,0,0,1,.328-.477A6.31,6.31,0,0,0,712.785,158.435Zm-15.906-43.077a23.513,23.513,0,0,1-1.948,1.37,6.5,6.5,0,0,0,1.777-1.787C696.766,115.08,696.825,115.218,696.879,115.358ZM685.9,126.989a.1.1,0,0,0,.079.173,21.315,21.315,0,0,0,8.682-5.834,20.582,20.582,0,0,0,1.622-2.068c.206-.3.467-.89.731-1.216a4.881,4.881,0,0,0-.512,1.127,62.48,62.48,0,0,1-3.4,6.9.1.1,0,0,0,.152.14,24.706,24.706,0,0,0,5.732-7.108c.086-.141-.125-.291-.21-.149-.4.66-4.737,7.191-5.188,6.676-.085-.1,1.66-3.206,1.778-3.454.655-1.373,1.251-2.772,1.807-4.187,4.591,1.4,9.187,2.8,13.746,4.3q3.5,1.155,6.969,2.388c1.263.448,2.53.884,3.789,1.34.808.293,1.025.267,1.412,1.134.426.955.109,1.348-.242,2.287a133.823,133.823,0,0,1-5.906,13.477,45.106,45.106,0,0,0-3.331,7.993.146.146,0,0,0-.067-.033,41.985,41.985,0,0,0-7.012-.7c2.619-6.312,5.842-12.268,9-18.361a6.074,6.074,0,0,0,4.807-.348c.18-.089.052-.374-.129-.284a5.772,5.772,0,0,1-4.547.38l.1-.2c.516-.054,1.03-.051,1.547-.131a12.684,12.684,0,0,0,5.205-2.117c.155-.105-.009-.338-.17-.271a18.094,18.094,0,0,1-2.458.827,15.538,15.538,0,0,0,3.17-1.806c.243-.18-.016-.491-.26-.415-2.856.9-5.714,1.773-8.589,2.6l-.006,0c-.773.038-1.548.043-2.321.022-3.908-.107-7.816-.461-11.715-.732-6.208-.432-13.319-.186-18.582-3.848a18.354,18.354,0,0,0,10.173-4.116C690.069,123.548,688.377,125.693,685.9,126.989Zm29.3,3.006c.851-.337,3.375-.9,3.721-.992.771-.212,1.545-.419,2.318-.625A16.509,16.509,0,0,1,715.2,129.994Zm2.8.355a15.33,15.33,0,0,0,2.891-.616c-.51.207-.99.472-1.513.656a11.835,11.835,0,0,1-3.545.653.426.426,0,0,0-.068-.171A20.794,20.794,0,0,0,718,130.349Zm-17.24.346q.632.048,1.275.1a3.765,3.765,0,0,1-.678,2.219l-.011,0A11.547,11.547,0,0,0,700.765,130.7Zm.292,2.368-.12.013c-.241-.042-.483-.081-.724-.12a6.241,6.241,0,0,0,.3-2.058A11.2,11.2,0,0,1,701.057,133.064Zm1.207-2.247,1.29.109a2.182,2.182,0,0,1-1.3,1.816,3.173,3.173,0,0,1-.494.181A3.911,3.911,0,0,0,702.264,130.816Zm-2.059-.162a7.985,7.985,0,0,1-.071,1.19,3.521,3.521,0,0,1-.241,1.059l-.411-.064c-.005-.035-.011-.071-.02-.1a10.825,10.825,0,0,0-.569-2.161c.388.02.768.042,1.138.067Zm-1.077,2.134q-.361-.053-.723-.1a6.877,6.877,0,0,0,.375-1.564A4.84,4.84,0,0,1,699.128,132.789Zm2.071,1.526c0,2,.057,3.943-1.719,5.328a21.042,21.042,0,0,1-1.975,1.307,6.936,6.936,0,0,0,.84-7.09Q699.775,134.062,701.2,134.315Zm-1.06,6.528c2.328-1.652,2.715-4.584,1.9-7.182,1.388-.354,2.587-1.22,2.652-2.644a49.127,49.127,0,0,0,9.711.06.142.142,0,0,0,.009.237l.089.046c-4.624,6.864-7.931,14.8-10.887,22.479a.7.7,0,0,0,.408.9q1.425.346,2.855.656c-.168.378-.313.76-.445,1.149a.877.877,0,0,0-.427-.018c-.568.117-.819.743-1.051,1.195-.138.27-.269.543-.4.817-3.535-.122-6.769-.172-10-1.82a.533.533,0,0,0-.231-.061,10.987,10.987,0,0,1-1.05-8.538C694.432,144.489,697.244,142.9,700.14,140.843Zm3.977,18.721a21.325,21.325,0,0,0-1.107,3.75l-.619-.018a.39.39,0,0,0-.076.01,11.779,11.779,0,0,1-2.173-1.079,19.682,19.682,0,0,1-4.351-3.464q-.235-.271-.455-.558A25.483,25.483,0,0,0,704.117,159.565Zm1.533-.132c.108-.27.209-.55.335-.812a11.752,11.752,0,0,0,4.892.925,11.5,11.5,0,0,0,3.227-.417,19.092,19.092,0,0,0,2.842,1.117c1.482.494,4.932.577,5.427,2.306-.035.026-.071.05-.105.077a.393.393,0,0,0-.134.307,40.789,40.789,0,0,1-8.543.539c-3.047.036-6.091-.029-9.136-.117A26.377,26.377,0,0,1,705.65,159.433Zm15.478.72c-.753-.145-1.5-.288-2.248-.453a15.064,15.064,0,0,0,6.941-1.717,12.577,12.577,0,0,0,4.085-3.971,16.185,16.185,0,0,1-2.218,4.493,11.321,11.321,0,0,1-2.631,2.521,14.671,14.671,0,0,1-1.653.9A3.057,3.057,0,0,0,721.129,160.153Zm9.139-4.041a59.059,59.059,0,0,0,3.794-14.09,19,19,0,0,0-2.724-12.6c-1.2-2.066-2.82-4.037-2.394-6.589.38-2.276,2.15-4.183,3.759-5.781.083.223.172.444.264.665-2.04,2.134-4.05,4.879-2.837,7.928.791,1.986,2.261,3.634,3.089,5.622a22.371,22.371,0,0,1,1.571,6.834,36.094,36.094,0,0,1-2.483,14.874c-1.256,3.508-2.857,6.722-5.763,8.529A15.723,15.723,0,0,0,730.267,156.111Zm7.177-40.968q-.68.047-1.358.11a.164.164,0,0,0,.026-.1c0-.017,0-.033,0-.05a4.975,4.975,0,0,0,1.287-.182C737.411,114.994,737.427,115.068,737.444,115.143Zm-.5-7.051a47.358,47.358,0,0,0,.407,6.622,12.107,12.107,0,0,1-1.26.132c-.169-2.242-.265-4.486-.267-6.735C736.2,108.1,736.571,108.1,736.944,108.092Zm-1.206.021q-.136,3.377.025,6.747l-.135.005c-.114-2.249-.389-4.483-.425-6.743Zm-7.031,1.041c.965-.4,2.1-.477,3.053-.881a12.061,12.061,0,0,0,.433,4.285.411.411,0,0,0,.752-.025,12.989,12.989,0,0,0,.078-4.333c.485,0,.99-.059,1.371-.062.239,0,.477-.009.716-.013a39.012,39.012,0,0,0,.254,6.752,13.819,13.819,0,0,0-3.324.348c-1.8.5-3.477,1.272-5.362,1.258a2.083,2.083,0,0,0,.521-2.181,10.194,10.194,0,0,0-1.346-2.737c-.1-.174-.21-.374-.323-.576A15.551,15.551,0,0,1,728.707,109.154Zm-10.075,2.574a.227.227,0,0,0,.3.261c1.218-.4,2.4-.86,3.641-1.2.58-.159,1.3-.484,1.866-.07a7.248,7.248,0,0,1,1.006,1.635c.7,1.23,1.63,2.643.488,3.836a3.827,3.827,0,0,0-1.278-3.115c-.022-.021-.058.017-.037.039a3.593,3.593,0,0,1,.959,1.758,6.42,6.42,0,0,1-.031,1.657,3.872,3.872,0,0,1-.6.33,2.818,2.818,0,0,0,.089-1.057,2.745,2.745,0,0,0-.686-1.6c-.024-.027-.06.006-.042.035a2.561,2.561,0,0,1,.431,1.658,8.5,8.5,0,0,1-.407,1.209,3.346,3.346,0,0,1-1.9.205,2.125,2.125,0,0,0,.519-2.783c-.859-1.257-3.037-.643-3.695.517a.2.2,0,0,0,.142.3,1.4,1.4,0,0,0-.076.614c.005.048.016.095.026.141a5.221,5.221,0,0,1-.93-.633,3.33,3.33,0,0,1-.757-1.057.95.95,0,0,0,.091-.268.178.178,0,0,0-.158-.194.976.976,0,0,0-.5.1.366.366,0,0,0-.192.436l-.127-.028a6.277,6.277,0,0,0,.142-.845,8.571,8.571,0,0,1,1.021-1.992C718.173,111.66,718.4,111.694,718.632,111.728Zm-.723-.114a8.8,8.8,0,0,0-.954,1.706,2.927,2.927,0,0,1,.62-1.771C717.686,111.57,717.8,111.594,717.909,111.614Zm-20.027-7.275c.028.027.063.048.094.073a4.827,4.827,0,0,0-2.173,1.254c-.03.03.01.081.043.052a6.15,6.15,0,0,1,2.216-1.239c.041.028.082.056.126.081a5.181,5.181,0,0,0-2.1,1.35c-.321.341-.743,1.235-1.31,1.115-.015,0-.021.022-.006.026.706.212,1.171-.8,1.592-1.21a5.207,5.207,0,0,1,1.515-1.015c.117-.051.331-.1.507-.167l.014.007-.154.1c-.588.445-1.563,1.322-1.67,2.1-.042.306.087.581.42.451.045-.018.02-.081-.024-.078-.7.054.6-1.654.65-1.71a5.432,5.432,0,0,1,.94-.8c.592.21,1.317.276,1.807.434a36.164,36.164,0,0,1,3.628,1.483c4.191,1.879,8.778,3.96,13.37,4.866a5.513,5.513,0,0,0-1.622,2.717c-3.586-.761-7.245-1.283-10.837-2-3.919-.779-7.94-2.01-11.921-2.423a.442.442,0,0,0-.01-.142c-.393-1.648-.753-3.3-1.127-4.954-.255-1.123-.7-2.366-.862-3.539q3.071-1.008,6.061-2.238c.088,1.2.237,2.4.372,3.588C697.483,103.1,697.427,103.888,697.881,104.339ZM697.2,95.5c.083.716.464,1.816-.045,2.4-.452.518-2.117.857-2.78,1.108-1.594.6-3.207,1.152-4.832,1.664a26.941,26.941,0,0,1-1.57-7.251,30.986,30.986,0,0,1,.146-3.662c.047-.463.106-.94.191-1.414a6.233,6.233,0,0,1,1.819-3.024,4.883,4.883,0,0,1,3.406-1.478,2.442,2.442,0,0,1,.258.056,5.69,5.69,0,0,1,1.588,1.047c.007.043.015.091.025.143a.439.439,0,0,0,.277.339,1.756,1.756,0,0,0,.222.062,16.654,16.654,0,0,1,.611,4.09Q696.863,92.543,697.2,95.5Zm-7.786,5.213c-.166.052-.331.106-.5.157a36.423,36.423,0,0,1-.755-4.417A33.3,33.3,0,0,0,689.418,100.717Zm-.766-13.744a5.383,5.383,0,0,1,1.594-2.528,3.209,3.209,0,0,1,2.942-.75,2.872,2.872,0,0,0-.721.082A6.336,6.336,0,0,0,688.652,86.973Zm6.088-3.5q-.733-.707-1.445-1.436c-.781-.8-1.535-1.615-2.277-2.446a7.489,7.489,0,0,1,.845.389c.83.742,1.6,1.609,2.416,2.4.293.4.569.8.831,1.193a.319.319,0,0,0-.106.084C694.92,83.59,694.83,83.529,694.74,83.47Zm.434-.288a8.258,8.258,0,0,0,1.167.812c-.014.029-.03.06-.043.089l-.26-.054a2.54,2.54,0,0,0-.583-.415C695.365,83.469,695.268,83.326,695.174,83.183Zm1.184-3.571c-.055-.032-.107-.063-.155-.093-.852-.544-1.7-1.092-2.557-1.63-.291-.183-.818-.407-1.295-.659a14.8,14.8,0,0,1,1.3-1.663c.186-.2.407-.393.626-.587a8.177,8.177,0,0,0,1.624,2.277c-.193-.11-.377-.217-.547-.305l-1.922-1c-.127-.066-.217.132-.113.213a10.1,10.1,0,0,0,2.6,1.611.075.075,0,0,0,.069-.131c-.187-.132-.377-.257-.568-.38l.44.231a5.065,5.065,0,0,0,1.593.673A5.66,5.66,0,0,0,696.359,79.612Zm1.415-1.7c-1.65-.294-2.587-1.684-3.352-3.058a4.414,4.414,0,0,0,.426-.442,12.632,12.632,0,0,0,3.04,3.421C697.849,77.854,697.812,77.881,697.774,77.909Zm12.235-7.8c.714.913,1.439,1.063-.194,1.806a.34.34,0,0,0-.2.277c-.023.873.107,1.1-.763,1.28a4.724,4.724,0,0,1-2.485-.4.362.362,0,0,0-.452.484,6.6,6.6,0,0,0,1.25,1.965c.85.895,1.727.922,1.6,2.451a2.817,2.817,0,0,1-.912,1.795,2.04,2.04,0,0,1-1.926.492,12.649,12.649,0,0,1-3.1-.614c-3.923-1.294-6.25-3.975-8.221-7.365a1.611,1.611,0,0,0,1.338-.8c.1-.175-.064-.472-.284-.343-2.926,1.715-3.382-2.315-2.438-4.226.427-.865,1.628-2.392,2.508-1.161.494.69.54,1.535,1.125,2.184a.763.763,0,0,0,1.328-.406c.006-.064.007-.132.009-.2.494-1.092,1.039-2.1,1.637-3.151a7.988,7.988,0,0,0,.865-2.024c.261-.076.521-.153.774-.242h0a19.421,19.421,0,0,0,7.506,1.37,11.17,11.17,0,0,0,.142,5.149A5.654,5.654,0,0,0,710.009,70.108Zm-9.284-9.28c-2.262-.1-4.606.8-6.848,1.029-.859.086-1.722.132-2.584.148.607-.046,1.211-.106,1.807-.175a36.99,36.99,0,0,0,5.575-1.08c.587-.161,1.326-.313,2.044-.519A2.908,2.908,0,0,0,700.725,60.827Zm.961.382q.489-.353.981-.7c.177.066.355.129.534.188q-.71.38-1.433.739A.59.59,0,0,0,701.686,61.21Zm15.7-2.871c.646.051,1.289.1,1.925.133-4.849,4.43-11.331,4.264-17.479,3q.745-.355,1.473-.738c1.125.367,2.3.619,3.439.9a9.711,9.711,0,0,0,3.69.389A11.766,11.766,0,0,0,717.39,58.338Zm-.339-.026a11.1,11.1,0,0,1-7.771,3.491,21.3,21.3,0,0,1-3.949-.808c-.59-.135-1.181-.256-1.766-.4a44.815,44.815,0,0,0,5.8-3.675A33.829,33.829,0,0,0,717.051,58.312Zm-7.809-1.452a48.306,48.306,0,0,1-5.8,3.7c-.207-.053-.413-.108-.618-.17.9-.639,1.8-1.266,2.742-1.84.694-.424,1.4-.821,2.132-1.183.236-.118.438-.231.6-.326-.1.072-.224.159-.371.266a.048.048,0,0,0,.05.08c.388-.2.767-.417,1.145-.638A.36.36,0,0,0,709.242,56.86Zm-13.531-9.373c2.7,1.07,5.949.74,8.718,1.575,1.608.485,2.17,2.331,2.854,3.748a30.74,30.74,0,0,0,1.782,3.643c0,.008,0,.015,0,.023a29.044,29.044,0,0,0-6.527,3.82c-.125-.041-.252-.078-.376-.124a.061.061,0,0,0-.043.114c.093.04.188.076.282.114q-.428.323-.851.652a.521.521,0,0,0-.328-.119.08.08,0,0,0-.076-.075c-.061-.006-.122-.008-.184-.013a3.83,3.83,0,0,1-.047-.67,5.122,5.122,0,0,0,1.884-.915.11.11,0,0,0,.014-.153l-.078-.083a.093.093,0,0,0-.109-.025l-.08.049c-.067.041-.047.157.043.142a9.062,9.062,0,0,0-1.656.488c.031-.5.089-.994.084-1.316a14.13,14.13,0,0,0-.135-2.021,7.852,7.852,0,0,0-.482-1.781,15.179,15.179,0,0,0-5.1-6.743A1.965,1.965,0,0,0,695.711,47.487Zm-2.463-.7c.042-.019.084-.039.126-.058a.471.471,0,0,0,.148.151c.31.211.651-.1.928-.217a.609.609,0,0,1,.588-.029.426.426,0,0,1-.3.568c-.058.031-.12.053-.18.078l-.091-.063a.007.007,0,0,0-.008.011l.076.062a2.272,2.272,0,0,1-.45.135,2.323,2.323,0,0,1-.716-.041.173.173,0,0,0-.2-.143c-.027,0-.056.008-.084.011a.488.488,0,0,1,0-.086A.657.657,0,0,1,693.248,46.783Zm1.453,1.309a3.04,3.04,0,0,0,.522-.231,19.553,19.553,0,0,1,4.191,5.181v0a11.177,11.177,0,0,1,1.4,6.186,4.932,4.932,0,0,1-.043.51,25.753,25.753,0,0,1-2.431.893,37.113,37.113,0,0,1-7.785,1.222c-.443.022-1.059.087-1.71.109-.469-.024-.937-.055-1.4-.1-.386-1.88.385-7.139.664-9.032a.685.685,0,0,0,.211.367c.056.052.15-.02.094-.078-.248-.258.14-1.138.3-1.4a5.335,5.335,0,0,1,.471-.6,16.264,16.264,0,0,1,1.429-1.526,15.6,15.6,0,0,1,2.05-1.6A2.59,2.59,0,0,0,694.7,48.092Zm-5.15,14.064q-1.019.011-2.038-.014c-.014-.039-.027-.079-.04-.124.081.008.161.016.245.022.253.019.508.032.764.04Q689.016,62.126,689.551,62.155Zm-2.682-8.934c.852-3.007,3.352-3.886,5.757-5.255l.023.016a17.533,17.533,0,0,0-3.285,2.788,6.256,6.256,0,0,0-1.176,1.478c0-.034-.049-.039-.054,0-.388,2.448-.669,4.9-.816,7.377a11.141,11.141,0,0,0-.159,2.22l-.207-.022a2,2,0,0,1-1.224-.766c0-.005-.008-.005-.012-.008A32.424,32.424,0,0,1,686.869,53.221Zm-1.156,7.946a1.723,1.723,0,0,0,.689.591c-.233-.028-.466-.059-.7-.091C685.706,61.5,685.708,61.334,685.713,61.168Zm-.018.907c0-.119.005-.239.007-.358q.5.086,1,.158a3.329,3.329,0,0,0,.48.107c.01.052.024.1.039.149C686.713,62.117,686.2,62.1,685.7,62.075Zm4.565,11.733a13.421,13.421,0,0,1-1.9-3.17,26.808,26.808,0,0,1-1.263-3.448,18.971,18.971,0,0,1-.516-2.143c-.054-.314-.292-1.218-.373-1.828a54.8,54.8,0,0,0,7.131-.021,40.473,40.473,0,0,0,6.656-.858c-.486,1.325-1.446,2.5-1.935,3.8-.293-1.226-1.062-2.462-2.316-2.414-1.646.063-2.923,2.044-3.377,3.432-.435,1.33-.513,3.345.5,4.462a2.064,2.064,0,0,0,1.027.591,9.154,9.154,0,0,0,.614,1.569,5.5,5.5,0,0,0-1.444,1.164c-.225.22-.439.45-.646.685A12.1,12.1,0,0,1,690.26,73.807Zm1.042,3.566a7.6,7.6,0,0,0,.97.711c1.009.71,2.055,1.37,3.085,2.049.74.488,2.082.972,2.018,1.832a6.464,6.464,0,0,1-.751,1.486c-.6-.621-1.328-1.139-1.967-1.723-.861-.787-1.659-1.65-2.553-2.4-.227-.191-1.072-.6-1.188-.876a.951.951,0,0,1-.077-.279.122.122,0,0,0,0-.116C690.867,77.751,691.145,77.606,691.3,77.374Zm-1.193,1.133a.953.953,0,0,0,.171.257c-.012-.01-.03,0-.019.018.064.079.132.155.2.234-.222-.105-.446-.223-.67-.352C689.894,78.61,690,78.555,690.109,78.506ZM677.1,123.6c-2.257-8.831-1.249-18.089,1.127-26.8,1.753-6.424,4.9-14.687,11.218-17.979a6.458,6.458,0,0,0,1.448.711q1.566,1.874,3.266,3.619a4.376,4.376,0,0,0-2.032-.381,4.782,4.782,0,0,0-3.736,2.617c-1.252,2.214-1.3,5.084-1.312,7.559,0,.787.026,1.572.079,2.354-1.221-2.534-2.565-6.036-1.44-8.641.009-.021-.024-.033-.033-.012-.808,2.089-.25,4.282.427,6.343.212.645.466,1.269.724,1.9.116.282.179.431.205.5a8.657,8.657,0,0,0-.391-.814c-.8-1.318-1.574-2.649-2.307-4.006a.1.1,0,0,0-.164-.016c-.6.832.086,2.248.446,3.079a10.447,10.447,0,0,0,2.666,3.648.131.131,0,0,0,.059.031q.137,1.083.34,2.158l-.006,0c-2.461,2.084-5.3,3.258-8.227,1.235a.007.007,0,0,0-.008.011,5.658,5.658,0,0,0,5.39.81c.58-.218,2.327-1.6,2.7-1.387-.071-.041-2.3,1.341-2.618,1.494-.73.358-1.477.668-2.235.959a.1.1,0,0,0-.017.178c1.57.955,3.952-.69,5.28-2.033.059.261.117.522.181.782.053.214.271.455.522.379.59-.177,1.174-.365,1.759-.553a10.088,10.088,0,0,0,.381,2.158c.361,2.115.806,4.208,1.289,6.3a.44.44,0,0,0,.207.29.239.239,0,0,0,.158.181c.778.285,1.577.532,2.39.753.442,1.1,1.031,2.126,1.54,3.19-6.15,3.127-12.32,6.762-19.165,8.052a.007.007,0,0,0,0,.013c5.861-.665,11.1-3.676,16.292-6.277L695.524,115l.862-.432a1.38,1.38,0,0,1-.639.92,17.249,17.249,0,0,1-3.722,2.6,37.175,37.175,0,0,1-8.447,3.428.053.053,0,0,0,0,.1q-1.042.327-2.089.645C680.191,122.656,678.288,122.795,677.1,123.6ZM687.878,100.4c-.325.324-1.5,1.373-1.676,1.477a5.946,5.946,0,0,1-1.81.737,1.151,1.151,0,0,1-1.049-.05q.424-.169.838-.361.971-.437,1.9-.958a6.677,6.677,0,0,0,1.748-1.082c0,.02.008.041.012.061a.092.092,0,0,0,.007.034C687.859,100.3,687.868,100.35,687.878,100.4Zm-.573-3.5a9.655,9.655,0,0,1-2.163-2.627c-.139-.255-1.352-3.153-.677-3.079.307.033,1.179,2.083,1.374,2.41.433.727.882,1.432,1.354,2.131Q687.239,96.316,687.305,96.9Zm-7.031,27.58c.753-.187,1.472-.413,2.049-.555a47.391,47.391,0,0,0,6.031-1.98c1.515-.6,3.066-1.244,4.55-2.008-.222.273-.44.549-.658.826q-.3.265-.6.517a18.663,18.663,0,0,1-10.229,4.111A14.291,14.291,0,0,1,680.274,124.477Zm4.064,6.443c-1.94-.5-4.178-1.715-3.024-3.944l.078-.016c4.546,3.352,11.606,3.326,17.113,3.594a7.776,7.776,0,0,1-.508,2.072,73.776,73.776,0,0,0-9.52-.642C687.1,131.616,685.72,131.275,684.339,130.92Zm-54.3-31.35c1.917-3.361,5.078-4.228,8.71-4.49,7.675-.557,15.4-.7,23.089-.595q2.762.036,5.522.124c1.327.042,3.107-.115,4.045.815a112.884,112.884,0,0,0-25.491.269A79.623,79.623,0,0,0,633.5,98.01a10.326,10.326,0,0,0-3.57,1.762C629.969,99.705,630,99.637,630.039,99.57Zm13.64,33.438a78.217,78.217,0,0,0-8.958.037c-1.55.08-3.094.2-4.637.374-.7.08-1.484.093-2.233.178a162.815,162.815,0,0,1-.012-23.2c.241-3.356.348-7.049,1.841-10.142,2-1.778,5.216-2.364,7.75-2.885A111.2,111.2,0,0,1,648.6,95.661a112.731,112.731,0,0,1,23.05.06,2.232,2.232,0,0,1,.327.79,27.716,27.716,0,0,1,.2,5.335c.017,1.918,0,3.836-.02,5.753-.048,4.136-.154,8.276-.04,12.412.056,2.023.143,4.049.323,6.065.144,1.616,1.165,5.788-.828,6.585-2.733-.037-5.471-.013-8.2-.033q-5.166-.037-10.332-.061c-3.037-.017-6.356-.365-9.321.4A.258.258,0,0,0,643.679,133.009Zm1.719,1.685c-.181-.03-.351-.065-.511-.105a.871.871,0,0,1-.192-.3.923.923,0,0,1,.057-.723l.824,0A2.69,2.69,0,0,0,645.4,134.694Zm.328.049a1.424,1.424,0,0,1-.05-.287,1.98,1.98,0,0,1,.166-.9c4.215-.009,8.432-.032,12.65,0q3.616.031,7.231.056l3.788.027,1.456.01a2.822,2.822,0,0,0,.9-.042,3.184,3.184,0,0,1,1.43.058q.757-.167.3.8l-.434.05a10.794,10.794,0,0,1-2.394.029l-3.474.033-7.642.073-7.642.073A42.524,42.524,0,0,1,645.725,134.743Zm12.243,4.575a.509.509,0,0,1,.189-.017c.206.11.365.214.369.274.02.3-.4.525-.763.614a.933.933,0,0,0,.228-.436A.814.814,0,0,0,657.969,139.318Zm.024-1.214-.019.009c-.574-.272-1.164-.5-1.569-.719-.131-.07-2.012-1.043-3.353-1.694l4.416-.044,7.244-.069c-.959.243-1.9.58-2.825.892C660.906,136.812,658.809,137.194,657.993,138.1Zm-5.09-.031c-1.075-.524-2.132-1.086-3.175-1.672-.381-.214-.756-.436-1.132-.657l3.16-.032a11.169,11.169,0,0,0,2.835,1.656c.871.5,1.742.992,2.619,1.478.04.022.166.079.323.151a1.077,1.077,0,0,0-.58.938C655.652,139.222,654.194,138.7,652.9,138.073Zm-6.523,4.48a37.008,37.008,0,0,0,4.116-.291c-.819.778-1.576,1.6-2.237,2.307a40.971,40.971,0,0,0-4.731,6.221c-.47.751-.917,1.516-1.348,2.289l1.062-3.458c.393-1.28.787-2.56,1.167-3.844a23.086,23.086,0,0,0,.862-3.04A4.134,4.134,0,0,1,646.38,142.553Zm-3.063,4c.36-.885.773-1.749,1.091-2.651a2.315,2.315,0,0,1,.528-.959c-.685,1.941-1.237,3.944-1.837,5.907-.578,1.892-1.222,3.783-1.716,5.7q-.384.736-.749,1.482a37.05,37.05,0,0,1,.658-3.792A56.43,56.43,0,0,1,643.317,146.555Zm-2.535.88c.248-.908.462-2.389,1.233-2.947a2.23,2.23,0,0,1,.984-.343c-.02.075-.039.15-.06.228-.672,2.461-1.552,4.857-2.2,7.326-.21.8-.481,1.708-.68,2.633C639.156,154.369,640.668,147.852,640.782,147.435Zm27.295,19.913,1.59.01a16.045,16.045,0,0,1,.617,4.469,10.43,10.43,0,0,1-.443,2.333,5.345,5.345,0,0,1-1.028-.157,3.9,3.9,0,0,1-.792-.352,11.829,11.829,0,0,0,.457-3.55A4.773,4.773,0,0,0,668.077,167.348Zm1.98.012.269,0c.039.117.076.234.111.351l-.151.114C670.217,167.668,670.14,167.513,670.057,167.36Zm-.317,7.114a10,10,0,0,1-.518,1.226c-.08.117-.159.234-.244.348a.122.122,0,0,0-.013.136q-.163.283-.346.555a10.054,10.054,0,0,1-7.424,4.312c-.056-.354-.169-.707-.23-1.057-.076-.441-.123-.885-.157-1.33A8.893,8.893,0,0,0,667,175.576a2.85,2.85,0,0,0,1.512.9.075.075,0,0,0,.051-.135c-.316-.206-.686-.315-1-.531a4.061,4.061,0,0,1-.461-.369,5.552,5.552,0,0,0,.846-1.588A3.675,3.675,0,0,0,669.74,174.474Zm-8.823,6.6c-.275.016-.55.024-.825.015h-.017c.062-.8.057-1.592.14-2.389.147,0,.294-.011.442-.021.013.414.036.828.084,1.241A7.425,7.425,0,0,0,660.917,181.07Zm6.929-9.614a9.448,9.448,0,0,1-.331,1.849c-.05-.038-.1-.074-.149-.115-.095-.08-.2.075-.11.155.06.054.125.108.192.162a5.632,5.632,0,0,1-.7,1.455c-.015.022-.033.041-.048.063-.014-.017-.032-.032-.046-.05-.055-.068-.158.018-.1.087.02.025.043.052.063.078a8.342,8.342,0,0,1-6.339,2.982.071.071,0,0,0-.132,0c-.268,0-.534,0-.794-.021a7.968,7.968,0,0,1-5.844-3.293,7.628,7.628,0,0,1-1.082-2.316.084.084,0,0,0-.034-.136,5.9,5.9,0,0,1,.686-5.146q7.092.072,14.183.13a.293.293,0,0,0,.061.063C668.361,168.127,667.939,170.38,667.846,171.455Zm-15.942.937a3.135,3.135,0,0,0-2.072.974.082.082,0,0,0,.1.121c.386-.167.707-.452,1.095-.624a4.174,4.174,0,0,1,.92-.28,7.988,7.988,0,0,0,.711,1.888,8.392,8.392,0,0,0,7.192,4.228c.062,0,.125,0,.187,0a8.075,8.075,0,0,0-.1,2.377c-4.567-.233-9.863-4.575-10.705-9.336.061-.023.121-.049.182-.071.044-.016.026-.077-.013-.083-.068-.011-.137-.025-.205-.037a7.3,7.3,0,0,1-.083-1.224c.2-.011.394-.026.593-.031a.251.251,0,0,0,.051-.5c-.2-.032-.4-.066-.6-.1a6.684,6.684,0,0,1,.131-.752.344.344,0,0,0,.1-.4,6.936,6.936,0,0,1,.565-1.36l2.789.029C651.538,168.377,651.485,170.56,651.9,172.393Zm-2.842-4.516a5.366,5.366,0,0,0-3.428-.655c0-.029.007-.057.009-.085l3.852.039A4.028,4.028,0,0,0,649.062,167.876Zm-.457,1.72a19.2,19.2,0,0,1-2.14-.5q1.112-.037,2.223-.087A5.547,5.547,0,0,0,648.6,169.6Zm.082,1.858c-.991-.188-1.975-.417-2.961-.627a19.413,19.413,0,0,1,2.855-.47A8.333,8.333,0,0,0,648.686,171.454Zm-1.384-3.587c.548.083,1.084.227,1.632.3-.015.038-.031.075-.045.114Q648.1,168.046,647.3,167.868Zm-.392.574c-.494.018-.988.033-1.482.048q.03-.152.059-.3C645.964,168.26,646.439,168.343,646.911,168.442Zm.8,1.572a22.8,22.8,0,0,0-2.5.511c0-.207,0-.414.01-.622.01-.185.032-.368.059-.552A12.58,12.58,0,0,0,647.707,170.014Zm27.4,2.351-.858-.255a9.9,9.9,0,0,1-1.151-.344l-.461-.138q-.985-.6-.3-.529c.353-.2,1.233-.05,1.635-.094.44-.047.878-.113,1.314-.187A12.182,12.182,0,0,1,675.1,172.365Zm-3.426-1.569c-.089,0-.189.071-.164.174.28,1.156,2.162,1.275,3.092,1.549l.446.125c-.006.034-.012.068-.019.1-.174-.007-.323-.009-.376-.012a24.578,24.578,0,0,1-3-.34.135.135,0,0,0-.116.219,1.357,1.357,0,0,0,1.146.513.048.048,0,0,0,.01-.095l-.609-.3q.344.053.691.091.576.068,1.156.108c.349.024.7.034,1.048.04a15.831,15.831,0,0,1-2.99,6.184,14.489,14.489,0,0,1-11.869,5.441,15.759,15.759,0,0,1-11.619-5.488,14.8,14.8,0,0,1-2.968-5.926,11.761,11.761,0,0,1-.308-2.075c.889.092,2.755.273,3.47.425.012.071.025.141.039.212-.732.294-2.861,1.111-3.107,1.263a.1.1,0,0,0,.084.185c1.032-.388,2.03-.864,3.056-1.276a12.759,12.759,0,0,0,1.456,3.711,12.006,12.006,0,0,0,9.548,6.036A10.443,10.443,0,0,0,670.29,174.4h.006a.087.087,0,0,0,.038-.125c0-.009,0-.018.008-.026a9.04,9.04,0,0,0,.715-4.388c1.366.5,2.85.186,4.235.5,0,.033,0,.066,0,.1A16.735,16.735,0,0,1,671.677,170.8Zm2.716-2.136a6.221,6.221,0,0,1-2.794-.466,22.711,22.711,0,0,0,3.412-.276q.088.353.147.71Q674.774,168.637,674.393,168.66Zm.85.609c.021.214.038.429.045.645-1.045-.254-2.15-.179-3.206-.378a19.541,19.541,0,0,1,2.234-.255C674.638,169.283,674.95,169.276,675.243,169.269Zm-4.472-.966a2.845,2.845,0,0,0,1.118.662q-.464.087-.927.2Q670.889,168.73,670.771,168.3Zm1.6-.675c-.516.013-1.033.009-1.554-.015a.3.3,0,0,0-.14.029.093.093,0,0,0-.114-.012c-.032-.089-.067-.177-.1-.266q1.934.012,3.867.022C673.672,167.462,673.019,167.541,672.367,167.627Zm-1.607,1.594a.34.34,0,0,0-.036.026,7.05,7.05,0,0,0-.265-1l.12-.009A9.931,9.931,0,0,1,670.76,169.221Zm-7.1-3.848-25.816-.231c.949-1.871,1.7-3.858,2.569-5.757a68.641,68.641,0,0,1,3.994-7.626,41.344,41.344,0,0,1,4.389-5.923,30.938,30.938,0,0,1,3.131-3.028c.968-.811,2.145-1.449,3.021-2.346a10.661,10.661,0,0,0,2.664.686,1.71,1.71,0,0,0,.514.033c.108,0,.217.007.324,0a.113.113,0,0,0,.111-.084c.833-.24,1.546-.95,1.032-1.8a2.427,2.427,0,0,0-.791-.736,14.621,14.621,0,0,1,1.675-.553c.81-.277,1.628-.531,2.448-.778a24.38,24.38,0,0,0,4.828-1.578.215.215,0,0,0,.091-.1h.042c1.618-.015,3.247.023,4.863-.046a2.967,2.967,0,0,0,2.047-.557,1.51,1.51,0,0,0,.5-.889c1.7-.086,3.384-.383,5.075-.541,2.476-.231,4.953-.393,7.441-.4a73.267,73.267,0,0,1,9.762.634v0a.1.1,0,0,0,.167.088c.017-.021.032-.044.049-.065l.433.06a6.961,6.961,0,0,1-.908,7.072.081.081,0,0,0,.041.129,12.458,12.458,0,0,0-2.151,1.58,11.815,11.815,0,0,0-3.63,7.013,17.439,17.439,0,0,0-15.2-10.521c-4.367-.2-8.98,1.112-13.111,2.427-4.456,1.419-8.72,3.578-11.5,7.461-.026.036.028.072.055.039,3.325-4.033,8.242-5.955,13.205-7.108,4.339-1.008,8.967-1.948,13.34-.849-.007.031.006.068.043.068.087,0,.173.008.259.013.423.116.845.244,1.263.4s.827.334,1.231.522a15.735,15.735,0,0,1,3.455,3.49,16.995,16.995,0,0,1,.546,20.084C678,165.552,670.83,165.437,663.663,165.373Zm24.428.318c0,.005,0,.011-.007.017l-2.433-.037a17.433,17.433,0,0,0-1.894-21.473,18.111,18.111,0,0,0-1.8-1.717,16.629,16.629,0,0,1,7.8,8.447C691.737,155.935,690.532,161.138,688.091,165.691Zm41.662-3.922a16.29,16.29,0,0,1-3.869,3.024,12.8,12.8,0,0,1-5.336.988c-3.966.173-7.941.177-11.911.158-5.872-.029-11.744-.1-17.615-.187a15.9,15.9,0,0,0,2.218-8.34,14.347,14.347,0,0,0,11.1,7.093c1.25.15,2.557.089,3.771.113q3.516.07,7.032,0c1.985-.041,3.988-.057,5.966-.231a9.282,9.282,0,0,0,1.8-.3.665.665,0,0,0,.488-.175,3,3,0,0,0,1.155-.838c2.879-.632,5.16-3.309,6.468-5.8a39.87,39.87,0,0,0,4.1-13.635,24.436,24.436,0,0,0-1.59-12.509c-.963-2.225-3.063-4.253-3.469-6.654-.435-2.566,1.36-4.766,2.98-6.594.823,1.936,1.942,3.8,2.847,5.666q1.761,3.634,3.358,7.342,1.532,3.56,2.927,7.177c.463,1.2.933,2.411,1.351,3.632a17.219,17.219,0,0,1,.63,3.687,43.51,43.51,0,0,1-6.724,8.526C734.934,156.595,732.382,159.224,729.753,161.769Zm12.41-11.363a17.565,17.565,0,0,0,1.368-1.841,4.826,4.826,0,0,1,.168,1.112Q742.916,150.008,742.163,150.406Zm1.289.543a2.606,2.606,0,0,1-1.1,1.152c-.8.458-1.616.861-2.4,1.342-.527.323-1.04.666-1.548,1.016.092-.1.184-.2.276-.3.393-.43.817-.869,1.25-1.319A25.3,25.3,0,0,1,743.453,150.948Zm-8.781,20.41c-.02-.066-.121-.519-.257-.885l.132-.006c.032.3.075.6.13.906Zm.492-.493c-.047-.145-.1-.287-.151-.429l.2-.015a.3.3,0,0,0,.074.151C735.238,170.669,735.2,170.767,735.163,170.865Zm1.091,2.923c-.034-.195-.054-.383-.068-.568a2,2,0,0,0,1.326-.468c.036-.028,0-.091-.043-.068a1.794,1.794,0,0,1-1.3.2c0-.039,0-.078,0-.117a32.191,32.191,0,0,1,3.458-1.584q.133.452.311.9a9.529,9.529,0,0,0-3.61,2.063C736.3,174.025,736.275,173.907,736.254,173.788Zm3.132-3.381h0l.049-.014q.034.177.076.354a25.911,25.911,0,0,1-3.17.748A22.16,22.16,0,0,1,739.386,170.407Zm-2.593-.2c.11-.029.221-.051.331-.076s.227-.051.341-.077q.306-.061.617-.112a7.31,7.31,0,0,1-.749.246C737.154,170.2,736.974,170.209,736.793,170.21Zm2.352-.632.169-.055c.008.1.017.206.03.309a.21.21,0,0,0-.05,0,9.212,9.212,0,0,1-.98.234,7.646,7.646,0,0,0,.78-.292A.13.13,0,0,0,739.145,169.578Zm-2.146,2.3q-.408.2-.812.4c.006-.083.014-.164.022-.246C736.473,171.981,736.738,171.931,737,171.873Zm-.582,2.64A10.822,10.822,0,0,1,740,172.239q.2.478.448.943c-1.341.48-2.589,1.378-3.979,1.539C736.453,174.652,736.435,174.583,736.417,174.514Zm17.425-4.815a2.572,2.572,0,0,0-2.222-1.347,4.132,4.132,0,0,0-.546-3.076,5.159,5.159,0,0,1,4.323,8.115c-1.6,2.258-5.091,2.414-7.292.94-2.437-1.633-1.865-4.1-1.847-6.575l.013.02a9.481,9.481,0,0,0,1.442,2.1,1.54,1.54,0,0,0,1.059.382,2.017,2.017,0,0,0,.286,1.175,2.509,2.509,0,0,0,2.987.97C753.186,172.046,754.437,171,753.842,169.7Zm-2.672,1.472a1.358,1.358,0,0,0,1.474-1.278,1.422,1.422,0,0,0-.219-.835,1.763,1.763,0,0,1,.665.423c1.269,1.27-.619,2.5-1.825,2.482-.852-.016-2.079-.92-1.819-1.81.073-.021.144-.046.215-.072a1.23,1.23,0,0,0,.736,1.054A1.066,1.066,0,0,0,751.17,171.17Zm-.813-2.71c-.076.021-.151.043-.224.069a.149.149,0,0,0-.1.144,1.763,1.763,0,0,0-.429.2,1.883,1.883,0,0,0-.343.288c-.905.22-1.378-.568-1.882-1.326-.226-.34-.45-.682-.681-1.019a12.257,12.257,0,0,0,1.382-.578.084.084,0,0,0,.107.033,6.868,6.868,0,0,0,1.048-.665,5.632,5.632,0,0,1,.751-.215C750.6,166.482,750.989,167.648,750.357,168.46Zm-1.64-2.975a11.455,11.455,0,0,1-2.214,1.026,21.285,21.285,0,0,0,2.135-2.129.089.089,0,0,0-.109-.131,8.421,8.421,0,0,0-2.269,1.963c-.086-.113-.173-.225-.263-.334.393-.3.781-.6,1.16-.92.545-.456,1.079-.919,1.613-1.366.034.028.069.057.109.086.235.342.507.733.768,1.147A9.873,9.873,0,0,0,748.717,165.485Zm-2.566,2.1c-.054,2.86-.776,5.6,2.276,7.227,2.327,1.237,5.6.983,7.19-1.266a5.438,5.438,0,0,0-4.692-8.556c-.391-.725-.852-1.414-1.222-1.99,3.151-1.859,7.37-.226,8.939,3a7.929,7.929,0,0,1-2.237,9.407c-2.755,2.291-6.544,2.9-9.473.616-2.821-2.2-4.079-6.021-2.264-9.2.249-.167.5-.336.739-.511.1.191.2.378.311.563a.2.2,0,0,0,.1.161Q745.98,167.313,746.152,167.586Zm.15,8.452c3.241,2.808,7.7,2.206,10.754-.644,2.824-2.635,3.722-7.224,1.418-10.493a6.7,6.7,0,0,0-8.491-2.281,8.966,8.966,0,0,1,6.144-2.239,11.565,11.565,0,0,1,1.866,1.056l-.372.178a.231.231,0,0,0,.131.436c.291-.043.58-.092.87-.138.224.183.442.374.648.574l-.372.215c-.245.142-.163.556.151.5.257-.044.512-.094.766-.148A8.991,8.991,0,0,1,762,168.032c.44,3.891-1.775,7.7-4.9,9.9-3.791,2.664-8.168,2.356-11.857-.354a13.521,13.521,0,0,1-3.775-4.293c-.031-.055-.055-.111-.085-.167a.1.1,0,0,0-.084-.164,22.175,22.175,0,0,1-1.257-3.693,22.981,22.981,0,0,0,4.029-2.037A7.51,7.51,0,0,0,746.3,176.038Zm11.835-15.359c.4.066.805.125,1.213.175q-.295.111-.583.234C758.563,160.942,758.353,160.805,758.137,160.68Zm3.685,3.792c.4.037,1.581-.052,1.6.589.006.245-.878.651-1.13.821a.1.1,0,0,0-.032.034,10.615,10.615,0,0,0-1.126-2.312q1-.143,2-.287c-.456.265-.914.526-1.371.788A.194.194,0,0,0,761.822,164.471Zm-1.005-1.319c-.069-.095-.138-.189-.21-.282.379-.1.755-.2,1.128-.322C761.428,162.749,761.121,162.949,760.817,163.153ZM762,163q.721-.466,1.439-.936c.146.247.286.5.415.753Q762.929,162.9,762,163Zm-1.4-.675,2-1.16a.285.285,0,0,0,.136-.217l.047-.005c.1.182.2.361.306.54A19.106,19.106,0,0,1,760.6,162.325Zm-.669-.221c-.115-.119-.233-.235-.354-.347.464-.08.928-.163,1.39-.252Zm-.453-.84c.216-.086.433-.168.654-.244.06-.02.122-.043.186-.067.1.008.2.014.305.02,0,.019.017.042.038.031l.05-.025.171.01Q760.183,161.13,759.481,161.264Zm5.635,5.4a14.807,14.807,0,0,1-.169,7.09,15.272,15.272,0,0,1-8.868,9.622,15.3,15.3,0,0,1-18.12-5.553,11.1,11.1,0,0,1-1.408-2.844,23.081,23.081,0,0,0,3.989-1.633l.015.027c-.168.077-.342.158-.415.2-.324.2-.642.4-.95.621a12.131,12.131,0,0,0-2.087,1.836c-.107.121.089.3.208.192a23.637,23.637,0,0,1,3.355-2.656,15.513,15.513,0,0,0,4.971,5.176,10.256,10.256,0,0,0,12.152-.395c3.323-2.475,5.6-6.7,4.87-10.9a9.746,9.746,0,0,0-.353-1.4.115.115,0,0,0,.1.015,3.933,3.933,0,0,0,1.74-1.293.179.179,0,0,0-.083-.269,11.089,11.089,0,0,0-1.628-.351c.532-.319,1.064-.637,1.608-.936A16.068,16.068,0,0,1,765.116,166.662Zm.114-8.111a7.578,7.578,0,0,1-1.707.6.681.681,0,0,0-.858.138c-2.18.235-4.277-.422-6.62-.6a9.134,9.134,0,0,0-6.171,2.07c-2.2,1.622-4.07,3.619-6.365,5.117a17.808,17.808,0,0,1-8.232,3.057,8.79,8.79,0,0,1-2.817-.143c-1.117-.331-1.258-1.049-.957-2.076.376-1.286.762-2.573,1.192-3.841a16.131,16.131,0,0,1,2.835-5.338c.169-.179.34-.357.509-.537a21.9,21.9,0,0,1,11.377-4.463c4.91-.447,13.348.74,14.719,6.5.032.134.24.1.214-.034-.986-5.444-8.927-6.88-13.449-6.777a21.451,21.451,0,0,0-12.1,4.039c.256-.219.524-.43.808-.631a.18.18,0,0,0-.006-.29c.81-.562,1.636-1.1,2.489-1.6.973-.571,2.106-1,3.026-1.652a2.4,2.4,0,0,0,1-1.425l.147-.058c.017.047.033.094.05.141.1.257.465.078.383-.174-.013-.041-.028-.082-.042-.123a19.672,19.672,0,0,1,8.6-1.219,20.2,20.2,0,0,1,8.305,2.614,20,20,0,0,1,3.13,2.239,9.337,9.337,0,0,1,1.745,1.752C767.226,157.138,766.364,157.992,765.23,158.55Z" transform="translate(-625.536 -45.693)" fill="#1a1a1a" fill-rule="evenodd"/>
        </g>
    </g>
</svg>
