<svg xmlns="http://www.w3.org/2000/svg" width="53.253" height="100.754" viewBox="0 0 53.253 100.754">
    <g id="Group_2928" data-name="Group 2928" transform="translate(-260.333 -378.062)">
        <g id="Group_5" data-name="Group 5" transform="translate(267.759 378.062)">
            <path id="Path_17" data-name="Path 17" d="M353.637,395.59c.974.295,1.539-.775,1.194-1.573-.435-1-.171-1.859-1.194-1.572-.635.177-1.456.568-1.194,1.572C352.663,394.857,353.006,395.4,353.637,395.59Z" transform="translate(-326.063 -387.135)" fill="#8d0000"/>
            <path id="Path_18" data-name="Path 18" d="M368.838,390.064a.683.683,0,0,0,.678-.167.383.383,0,0,0-.344-.608c-.388,0-.628-.2-.678.167C368.463,389.688,368.475,390.009,368.838,390.064Z" transform="translate(-336.253 -385.137)" fill="#8d0000"/>
            <path id="Path_19" data-name="Path 19" d="M381.763,400.65c-1.05-.309-1.54-1.056-1.972-.087-.27.6.275,1,.447,1.924.159.853,1.422.448,1.972.085A1.08,1.08,0,0,0,381.763,400.65Z" transform="translate(-343.368 -392.008)" fill="#8d0000"/>
            <path id="Path_20" data-name="Path 20" d="M373.629,422.391a.76.76,0,0,0-.315-1.353c-.738-.215-1.081-.74-1.387-.059-.188.423.194.7.315,1.351C372.355,422.93,373.242,422.646,373.629,422.391Z" transform="translate(-338.402 -405.029)" fill="#8d0000"/>
            <path id="Path_21" data-name="Path 21" d="M366.182,410.74c.484.377,1.034-.1,1.011-.626-.027-.659.3-1.082-.333-1.143-.4-.037-.517.35-1.011.626C365.393,409.854,365.868,410.5,366.182,410.74Z" transform="translate(-334.465 -397.636)" fill="#8d0000"/>
            <path id="Path_22" data-name="Path 22" d="M358.353,379.513c.534-.387,1.07-.342.769-.908-.186-.35-.577-.238-1.081-.5-.466-.24-.74.51-.77.907A.651.651,0,0,0,358.353,379.513Z" transform="translate(-329.151 -378.063)" fill="#8d0000"/>
            <path id="Path_23" data-name="Path 23" d="M383.415,384.278c.334-.242.67-.216.482-.568-.117-.22-.362-.149-.676-.311-.292-.15-.463.319-.481.568A.407.407,0,0,0,383.415,384.278Z" transform="translate(-345.281 -381.423)" fill="#8d0000"/>
            <path id="Path_24" data-name="Path 24" d="M315.866,398.1c-1.8-.527-3-1.935-2.887-3.283-1.1.714-2.87.4-4.219-.832a3.732,3.732,0,0,1-1.292-3.912c-1.322.348-2.923-.61-3.733-2.325-.819-1.733-.525-3.6.615-4.383a3.835,3.835,0,0,1-1.824-3.538,4.916,4.916,0,0,1,.222-1.432,18.643,18.643,0,0,0-22.163,18.313c0,17.8,18.649,37.888,18.649,37.888s17.585-18.951,18.6-36.344A4.73,4.73,0,0,1,315.866,398.1Zm-33.152,2.339A16.881,16.881,0,0,1,299.209,379.8a17.279,17.279,0,0,1,2.116.146c-.025,0-.05,0-.076,0a18.631,18.631,0,0,0-18.629,18.632C282.619,399.2,282.652,399.829,282.714,400.443Zm16.52-9.052a5.32,5.32,0,1,1-5.319,5.32A5.319,5.319,0,0,1,299.234,391.391Zm.856,13.056a6.877,6.877,0,0,1-5.574-2.852,6.887,6.887,0,0,0,10.463-8.9,6.892,6.892,0,0,1-4.89,11.748Z" transform="translate(-280.585 -378.062)" fill="#8d0000"/>
        </g>
        <g id="Group_6" data-name="Group 6" transform="translate(260.333 435.486)">
            <path id="Path_25" data-name="Path 25" d="M260.333,535.827H268.7v3.128h-5.18v3.06h5.18V545.1h-5.18v7.586h-3.186Z" transform="translate(-260.333 -535.403)" fill="#8d0000"/>
            <path id="Path_26" data-name="Path 26" d="M294.8,546.923a6.607,6.607,0,0,1,3.318.882,6.468,6.468,0,0,1,3.295,5.661,6.55,6.55,0,0,1-.877,3.3,6.325,6.325,0,0,1-2.389,2.4,6.592,6.592,0,0,1-3.335.865,6.22,6.22,0,0,1-4.578-1.908,6.609,6.609,0,0,1,.246-9.506A6.26,6.26,0,0,1,294.8,546.923Zm.051,2.945a3.221,3.221,0,0,0-2.428,1.014,3.6,3.6,0,0,0-.97,2.6,3.669,3.669,0,0,0,.958,2.636,3.2,3.2,0,0,0,2.428,1.008,3.243,3.243,0,0,0,2.445-1.02,4.021,4.021,0,0,0,.017-5.231A3.242,3.242,0,0,0,294.851,549.868Z" transform="translate(-278.068 -542.431)" fill="#8d0000"/>
            <path id="Path_27" data-name="Path 27" d="M335.771,546.923a6.607,6.607,0,0,1,3.318.882,6.468,6.468,0,0,1,3.295,5.661,6.548,6.548,0,0,1-.877,3.3,6.327,6.327,0,0,1-2.39,2.4,6.59,6.59,0,0,1-3.334.865,6.221,6.221,0,0,1-4.578-1.908,6.609,6.609,0,0,1,.246-9.506A6.26,6.26,0,0,1,335.771,546.923Zm.052,2.945a3.221,3.221,0,0,0-2.428,1.014,3.6,3.6,0,0,0-.97,2.6,3.667,3.667,0,0,0,.959,2.636,3.2,3.2,0,0,0,2.428,1.008,3.244,3.244,0,0,0,2.445-1.02,4.021,4.021,0,0,0,.017-5.231A3.243,3.243,0,0,0,335.823,549.868Z" transform="translate(-304.017 -542.431)" fill="#8d0000"/>
            <path id="Path_28" data-name="Path 28" d="M380.15,534.671h3.128v17.281H380.15v-1.318a6.123,6.123,0,0,1-1.837,1.255,5.132,5.132,0,0,1-2,.384,5.548,5.548,0,0,1-4.178-1.874,6.535,6.535,0,0,1-1.763-4.658,6.7,6.7,0,0,1,1.705-4.732,5.433,5.433,0,0,1,4.144-1.845,5.267,5.267,0,0,1,2.106.424,5.74,5.74,0,0,1,1.82,1.272Zm-3.289,7.38a3.162,3.162,0,0,0-2.41,1.026,3.7,3.7,0,0,0-.959,2.63,3.736,3.736,0,0,0,.977,2.659,3.164,3.164,0,0,0,2.4,1.042,3.22,3.22,0,0,0,2.444-1.026,3.75,3.75,0,0,0,.971-2.688,3.643,3.643,0,0,0-.971-2.635A3.262,3.262,0,0,0,376.861,542.051Z" transform="translate(-330.026 -534.671)" fill="#8d0000"/>
        </g>
        <g id="Group_7" data-name="Group 7" transform="translate(260.333 459.727)">
            <path id="Path_29" data-name="Path 29" d="M260.333,600.782H263.7v6.587a7.728,7.728,0,0,1,2-1.286,5.155,5.155,0,0,1,2.038-.429,4.589,4.589,0,0,1,3.393,1.392,4.863,4.863,0,0,1,1.181,3.542v8.935H268.97V613.6a14.624,14.624,0,0,0-.224-3.182,2.223,2.223,0,0,0-.764-1.243,2.15,2.15,0,0,0-1.336-.41,2.516,2.516,0,0,0-1.771.684,3.625,3.625,0,0,0-1.025,1.864,15.429,15.429,0,0,0-.149,2.784v5.43h-3.368Z" transform="translate(-260.333 -600.782)" fill="#8d0000"/>
            <path id="Path_30" data-name="Path 30" d="M314.405,622.159h-10.9a3.629,3.629,0,0,0,1.261,2.293,3.958,3.958,0,0,0,2.616.851,4.524,4.524,0,0,0,3.268-1.33l2.859,1.342a6.742,6.742,0,0,1-2.56,2.243,8.007,8.007,0,0,1-3.542.727,7,7,0,0,1-5.182-2.007,6.83,6.83,0,0,1-2-5.027,7.059,7.059,0,0,1,2-5.138,6.7,6.7,0,0,1,5-2.044,6.946,6.946,0,0,1,5.195,2.044,7.387,7.387,0,0,1,2,5.4Zm-3.393-2.672a3.406,3.406,0,0,0-1.326-1.839,3.847,3.847,0,0,0-2.3-.708,4.058,4.058,0,0,0-2.489.8,4.434,4.434,0,0,0-1.245,1.752Z" transform="translate(-285.598 -609.197)" fill="#8d0000"/>
            <path id="Path_31" data-name="Path 31" d="M344.219,614.417h2.908v1.7a3.635,3.635,0,0,1,1.255-1.528,3.031,3.031,0,0,1,1.715-.522,3.167,3.167,0,0,1,1.379.348l-1.056,2.92a2.328,2.328,0,0,0-.982-.3,1.554,1.554,0,0,0-1.324.969,8.873,8.873,0,0,0-.54,3.8l.013.659v5.468h-3.368Z" transform="translate(-313.46 -609.197)" fill="#8d0000"/>
            <path id="Path_32" data-name="Path 32" d="M381.04,622.159h-10.9a3.629,3.629,0,0,0,1.261,2.293,3.958,3.958,0,0,0,2.616.851,4.524,4.524,0,0,0,3.268-1.33l2.859,1.342a6.742,6.742,0,0,1-2.56,2.243,8.006,8.006,0,0,1-3.542.727,7,7,0,0,1-5.182-2.007,6.83,6.83,0,0,1-2-5.027,7.059,7.059,0,0,1,1.995-5.138,6.7,6.7,0,0,1,5-2.044,6.945,6.945,0,0,1,5.195,2.044,7.387,7.387,0,0,1,2,5.4Zm-3.393-2.672a3.406,3.406,0,0,0-1.326-1.839,3.847,3.847,0,0,0-2.3-.708,4.058,4.058,0,0,0-2.489.8,4.435,4.435,0,0,0-1.245,1.752Z" transform="translate(-327.799 -609.197)" fill="#8d0000"/>
        </g>
    </g>
</svg>
